<global>
loop_mode=one_shot

<group>
group=2

<region>
key=36
sample=samples/606BASS.WAV

<region>
key=38
sample=samples/606SNAR.WAV

<region>
key=43
sample=samples/606LTOM.WAV

<region>
key=50
sample=samples/606HTOM.WAV

<region>
key=49
sample=samples/606CYMB.WAV

<group>
group=1
off_by=1

<region>
key=42
sample=samples/606CHAT.WAV

<region>
key=44
sample=samples/606MHAT.WAV

<region>
key=46
sample=samples/606OHAT.WAV


